# xmcd CD database file
#
# Track frame offsets:
#	150
#	16285
#	34368
#	56835
#	74430
#	88930
#	108235
#	124455
#	138098
#	154518
#	178253
#	195598
#	216005
#	230925
#	241265
#
# Disc length: 3422 seconds
#
# Revision: 1
# Processed by: cddbd v1.5.2PL0 Copyright (c) Steve Scherf et al.
# Submitted via: CDex 1.51
#
DISCID=dc0d5c0f
DTITLE=Raphael Gualazzi - Reality and fantasy
DYEAR=2011
DGENRE=Jazz
TTITLE0=Follia d'amore
TTITLE1=Icarus
TTITLE2=Tuesday
TTITLE3=Reality and fantasy
TTITLE4=Scandalize me
TTITLE5=Behind the sunrise (feat. Rox)
TTITLE6=A three second breath
TTITLE7=Calda estate (dove sei)
TTITLE8=Out of my mind
TTITLE9=Sarò sarai
TTITLE10=Love goes down slow
TTITLE11=Lady "O"
TTITLE12=Empty home
TTITLE13=Caravan
TTITLE14=Reality and fantasy (Gilles Peterson Remix)
EXTD=YEAR: 2011
EXTT0=
EXTT1=
EXTT2=
EXTT3=
EXTT4=
EXTT5=
EXTT6=
EXTT7=
EXTT8=
EXTT9=
EXTT10=
EXTT11=
EXTT12=
EXTT13=
EXTT14=
PLAYORDER=
